<svg xmlns="http://www.w3.org/2000/svg" width="37.164" height="28.308" viewBox="0 0 37.164 28.308">
  <defs>
    <style>
      .cls-1 {
        fill: none;
        stroke: #707070;
        stroke-linecap: round;
        stroke-width: 3px;
      }

      .cls-2 {
        fill: #707070;
      }
    </style>
  </defs>
  <g id="Перемешать" transform="translate(-481.934 -48.917)">
    <path id="Контур_30" data-name="Контур 30" class="cls-1" d="M4.363-7.292s6.423.4,11-1.648c3.328-1.354,4.506-2.226,5.983-3.8,1.018-1.084,3.342-5.192,4.962-7.269,2.642-3.082,8.856-3.118,9.909-3.168" transform="translate(479.162 78.284)"/>
    <path id="Контур_31" data-name="Контур 31" class="cls-1" d="M4.363-23.149s6.423-.4,11,1.648c3.328,1.354,4.506,2.226,5.983,3.8,1.018,1.084,3.342,5.192,4.962,7.269C28.952-7.347,35.166-7.31,36.22-7.26" transform="translate(479.162 78.284)"/>
    <path id="Контур_35" data-name="Контур 35" class="cls-2" d="M1.02,0H8.445a1.243,1.243,0,0,1,.773.505,1.363,1.363,0,0,1,.25.95,1.442,1.442,0,0,1-.25.929,1.142,1.142,0,0,1-.773.447H1.02a.814.814,0,0,1-.733-.406A1.456,1.456,0,0,1,0,1.456,1.892,1.892,0,0,1,.287.41.862.862,0,0,1,1.02,0Z" transform="translate(510.478 48.917) rotate(30)"/>
    <path id="Контур_36" data-name="Контур 36" class="cls-2" d="M1.02,2.835H8.445a1.244,1.244,0,0,0,.773-.505,1.363,1.363,0,0,0,.25-.95A1.442,1.442,0,0,0,9.218.45,1.142,1.142,0,0,0,8.445,0H1.02A.814.814,0,0,0,.287.409,1.457,1.457,0,0,0,0,1.38,1.891,1.891,0,0,0,.287,2.425.862.862,0,0,0,1.02,2.835Z" transform="translate(510.391 59.22) rotate(-45)"/>
    <path id="Контур_37" data-name="Контур 37" class="cls-2" d="M1.02,2.835H8.446a1.243,1.243,0,0,0,.773-.505,1.363,1.363,0,0,0,.25-.95,1.442,1.442,0,0,0-.25-.929A1.142,1.142,0,0,0,8.446,0H1.02A.814.814,0,0,0,.287.41,1.456,1.456,0,0,0,0,1.38,1.892,1.892,0,0,0,.287,2.425.863.863,0,0,0,1.02,2.835Z" transform="translate(509.061 74.769) rotate(-30)"/>
    <path id="Контур_38" data-name="Контур 38" class="cls-2" d="M1.02,0H8.445a1.243,1.243,0,0,1,.773.505,1.363,1.363,0,0,1,.25.95,1.442,1.442,0,0,1-.25.929,1.142,1.142,0,0,1-.773.447H1.02a.814.814,0,0,1-.733-.406A1.457,1.457,0,0,1,0,1.456,1.892,1.892,0,0,1,.287.411.863.863,0,0,1,1.02,0Z" transform="translate(512.397 64.917) rotate(45)"/>
  </g>
</svg>
