<svg xmlns="http://www.w3.org/2000/svg" width="24.489" height="27.21" viewBox="0 0 24.489 27.21">
  <defs>
    <style>
      .cls-1 {
        fill: gray;
      }
    </style>
  </defs>
  <path id="Повтор" class="cls-1" d="M7.081,24.72v3.129a1.36,1.36,0,1,1-2.721,0v-6.8a1.36,1.36,0,0,1,1.36-1.36h6.8a1.36,1.36,0,0,1,0,2.721H8.578a9.523,9.523,0,0,0,16.19-6.8,1.36,1.36,0,1,1,2.721,0,12.244,12.244,0,0,1-7.251,11.169,12.408,12.408,0,0,1-9.168.331A11.882,11.882,0,0,1,7.081,24.72ZM23.407,6.49V3.36a1.36,1.36,0,1,1,2.721,0v6.8a1.36,1.36,0,0,1-1.36,1.36h-6.8a1.36,1.36,0,0,1,0-2.721h3.945a9.523,9.523,0,0,0-16.19,6.8A1.36,1.36,0,0,1,3,15.6,12.244,12.244,0,0,1,23.407,6.49Z" transform="translate(-3 -2)"/>
</svg>
